GIL04_slow3_RRA_states
nRows=4
nColumns=47

# SIMM Motion File Header:
name GIL04_slow3_RRA_states
datacolumns 47
datarows 4
otherdata 1
range 0.96333000000000069000 0.96483000000000063000
endheader
time	pelvis_tx	pelvis_ty	pelvis_tz	pelvis_tilt	pelvis_list	pelvis_rotation	hip_flexion_r	hip_adduction_r	hip_rotation_r	knee_angle_r	ankle_angle_r	subtalar_angle_r	mtp_angle_r	hip_flexion_l	hip_adduction_l	hip_rotation_l	knee_angle_l	ankle_angle_l	subtalar_angle_l	mtp_angle_l	lumbar_extension	lumbar_bending	lumbar_rotation	pelvis_tx_u	pelvis_ty_u	pelvis_tz_u	pelvis_tilt_u	pelvis_list_u	pelvis_rotation_u	hip_flexion_r_u	hip_adduction_r_u	hip_rotation_r_u	knee_angle_r_u	ankle_angle_r_u	subtalar_angle_r_u	mtp_angle_r_u	hip_flexion_l_u	hip_adduction_l_u	hip_rotation_l_u	knee_angle_l_u	ankle_angle_l_u	subtalar_angle_l_u	mtp_angle_l_u	lumbar_extension_u	lumbar_bending_u	lumbar_rotation_u
      0.96333000000000069000	      0.84355182129413386000	      0.74508707988065248000	     -0.27210011971562997000	     -4.22262840549609300000	     -1.34391630714951150000	     -0.13186889904903398000	     26.76522391797489300000	      0.18733309104731327000	      0.79368897616790590000	    -46.21900000049693300000	      6.24202632107243180000	      0.00000000000081630673	     -0.00000000000006203447	      3.15237430532531080000	      4.10102524219443070000	     -9.24518502111386200000	     -1.65650746924897590000	      2.00011984747129290000	     -0.00000000000010477887	      0.00000000000041038083	     -5.92243178638414760000	     -1.00265381123235840000	      3.65485939468711330000	      0.81614319808913682000	     -0.02171028460604005800	     -0.02055572829265494400	     21.86513281071554700000	     -9.18704515023121540000	     -4.41757373224297290000	     65.77312553653436600000	     22.30124998788242900000	    -38.77134844324709200000	    191.58256509575895000000	     26.31794351161461200000	      0.00000000000139126003	     -0.00000000000013027981	    -75.80767984330481100000	     -3.85414834386586150000	     -0.98269341444958158000	    -40.99151158266563800000	     93.48267729985633400000	     -0.00000000000038790232	      0.00000000000163847537	    -23.88591895600226800000	      6.66363089695504660000	     17.39279759412038500000
      0.96383000000000063000	      0.84395995570738969000	      0.74507607314726032000	     -0.27211035949134649000	     -4.21169762214905320000	     -1.34849702626175660000	     -0.13407157475816522000	     26.79802583841330200000	      0.19845708064399212000	      0.77415839257734298000	    -46.12304273121552700000	      6.25508848107871350000	      0.00000000000081700223	     -0.00000000000006209963	      3.11446293678325460000	      4.09910980944767900000	     -9.24569047052451150000	     -1.67699512552136530000	      2.04684390521266570000	     -0.00000000000010496652	      0.00000000000041120333	     -5.93435626682576260000	     -0.99933930797302561000	      3.66352532051157100000	      0.81639424761280166000	     -0.02231697476530757800	     -0.02040459501364672000	     21.85781170460478200000	     -9.13613597696034500000	     -4.39286025931676340000	     65.43451009558322100000	     22.19489207269916900000	    -39.34993519325920600000	    192.24647005963601000000	     25.93043316452477500000	      0.00000000000139246664	     -0.00000000000013084036	    -75.83753201380783100000	     -3.80784339635361180000	     -1.04054896028498160000	    -40.95896510382845400000	     93.41324251755220600000	     -0.00000000000037782950	      0.00000000000165537243	    -23.81191450026703300000	      6.59514912734368150000	     17.26982841190027100000
      0.96433000000000069000	      0.84436821533403872000	      0.74506476257995768000	     -0.27212052553521482000	     -4.20077078368604530000	     -1.35305274726325650000	     -0.13626148508903319000	     26.83065838310439200000	      0.20952816490365408000	      0.75434009482133491000	    -46.02675357371633400000	      6.26795649291451800000	      0.00000000000081769821	     -0.00000000000006216461	      3.07653703747320060000	      4.09721713797775510000	     -9.24622700643308800000	     -1.69746628947915190000	      2.09353281347893900000	     -0.00000000000010514829	      0.00000000000041202319	     -5.94624361155745260000	     -0.99605789554274882000	      3.67212814037609460000	      0.81664405057960110000	     -0.02292561973677500700	     -0.02026080932927490000	     21.84935124582481300000	     -9.08705167077335750000	     -4.36650151843250000000	     65.09562528207770500000	     22.08962497589911000000	    -39.92219808589131000000	    192.91011451829343000000	     25.54135537212398400000	      0.00000000000139185069	     -0.00000000000012859189	    -75.86579918097677900000	     -3.76310342487283340000	     -1.10702254127983020000	    -40.92554943954878900000	     93.34214844246851300000	     -0.00000000000035177713	      0.00000000000164777065	    -23.73737417989324400000	      6.53126679749379860000	     17.14036305920259600000
      0.96483000000000063000	      0.84477659955477047000	      0.74505314720592297000	     -0.27213062152529321000	     -4.18984845857101180000	     -1.35758437943049940000	     -0.13843780162472685000	     26.86312141725224800000	      0.22054688901152120000	      0.73423727209273670000	    -45.93013266411186600000	      6.28062958337290310000	      0.00000000000081839417	     -0.00000000000006222901	      3.03859739744861250000	      4.09534644728309070000	     -9.24679890686309140000	     -1.71792052903347670000	      2.14018578015511450000	     -0.00000000000010531847	      0.00000000000041284081	     -5.95809355265974630000	     -0.99280727820502490000	      3.68066461239901390000	      0.81689263404420798000	     -0.02353619354172512700	     -0.02012437148388067400	     21.83976480056049500000	     -9.03977639095393570000	     -4.33849494491499940000	     64.75646223318848600000	     21.98545835714127300000	    -40.48799456567437000000	    193.57347365440205000000	     25.15075960533814800000	      0.00000000000139313313	     -0.00000000000012957266	    -75.89250724662508700000	     -3.71991592104470130000	     -1.18197879053926490000	    -40.89125826870572700000	     93.26941314863981300000	     -0.00000000000031448532	      0.00000000000161633025	    -23.66230388682408800000	      6.47196233921857810000	     17.00447087854986700000
